# xmcd
#
# Track frame offsets: 
#        150
#        30246
#        62423
#        85723
#        124208
#        148884
#        170761
#        205286
#        247795
#
# Disc length: 3669 seconds
#
# Revision: 2
# Processed by: cddbd v1.5.2PL0 Copyright (c) Steve Scherf et al.
# Submitted via: ExactAudioCopy v0.99pb4
#
DISCID=740e5309
DTITLE=Yellow Sunshine Explosion - Goa Beach Volume 9 - CD 2
DYEAR=2008
DGENRE=Ambient
TTITLE0=Koan and Krusseldorf - Watermarks
TTITLE1=Couchlock - Progress
TTITLE2=Krusseldorf - Welcome
TTITLE3=Seahorse Transform - Forest Morph
TTITLE4=Couchlock - Stockholm City Diesel
TTITLE5=Koan - Fashionable Mood
TTITLE6=Krusseldorf - Devil Weed
TTITLE7=Seahorse Transform - Djaja Dub
TTITLE8=Snakestyle - Reassured
EXTD=Compiled by DJ Banel\nLabel: Yellow Sunshine Explosion\nCatalog: 
EXTD=YSE186-2/DCD\nRelease: 2008-07-16\nBarcode: 5028557118622\nhttp:/
EXTD=/www.discogs.com/release/1563961
EXTT0=
EXTT1=
EXTT2=
EXTT3=
EXTT4=
EXTT5=
EXTT6=
EXTT7=
EXTT8=
PLAYORDER=
